<svg height="512" viewBox="0 0 60 60" width="512" xmlns="http://www.w3.org/2000/svg"><g id="Page-1" fill="none" fill-rule="evenodd"><g id="036---Growth-hacking" fill="rgb(0,0,0)" fill-rule="nonzero"><path id="Shape" d="m41 45c-1.6568542 0-3 1.3431458-3 3s1.3431458 3 3 3 3-1.3431458 3-3-1.3431458-3-3-3zm0 4c-.5522847 0-1-.4477153-1-1s.4477153-1 1-1 1 .4477153 1 1-.4477153 1-1 1z"/><path id="Shape" d="m2 45h.18l2.52 12.589c.28518225 1.3986127 1.51262032 2.4051954 2.94 2.411h11.72c1.4282996-.0060978 2.6560571-1.0141953 2.94-2.414l1.616-8.065 6 4.8c-.5704952.3679391-.9154035 1.0001454-.916 1.679v2c0 1.1045695.8954305 2 2 2h20c1.1045695 0 2-.8954305 2-2v-2c-.0016134-.6777892-.3463977-1.3086392-.916-1.676l6.407-5.13c1.3921453-1.1169245 1.8808948-3.0181603 1.2-4.668l-3.661-8.79c-.3982681-.9610261-1.1571486-1.727804-2.114-2.136-.0360243-.0161757-.0731104-.0298742-.111-.041l-2.1-.62 3.189-6.5h-.009c.071808-.1354549.1111756-.2857362.115-.439 0-8.84-7.378-15-14-15s-14 6.16-14 15c.0033579.1520055.0416819.3011952.112.436h-.009l3.189 6.5-2.1.62c-.0377769.0114637-.0748417.0251543-.111.041-.9576798.4073154-1.7179034 1.1732819-2.118 2.134l-.939 2.269h-10.024v-3h2c2.7600532-.0033061 4.9966939-2.2399468 5-5v-1c0-1.1045695-.8954305-2-2-2h-2c-1.0854693.0036768-2.1396111.3641933-3 1.026v-4.026h2c2.7600532-.0033061 4.9966939-2.2399468 5-5v-1c0-1.1045695-.8954305-2-2-2h-2c-1.0854693.0036768-2.1396111.3641933-3 1.026v-4.026h2c2.7600532-.0033061 4.9966939-2.2399468 5-5v-1c0-1.1045695-.8954305-2-2-2h-2c-1.0854693.00367682-2.1396111.36419333-3 1.026v-5.026c0-.55228475-.4477153-1-1-1s-1 .44771525-1 1v5.026c-.8603889-.66180667-1.9145307-1.02232318-3-1.026h-2c-.53043298 0-1.03914081.21071368-1.41421356.58578644-.37507276.37507275-.58578644.88378058-.58578644 1.41421356v1c.00330612 2.7600532 2.23994685 4.9966939 5 5h2v4.026c-.8603889-.6618067-1.9145307-1.0223232-3-1.026h-2c-1.1045695 0-2 .8954305-2 2v1c.00330612 2.7600532 2.23994685 4.9966939 5 5h2v4.026c-.8603889-.6618067-1.9145307-1.0223232-3-1.026h-2c-1.1045695 0-2 .8954305-2 2v1c.00330612 2.7600532 2.23994685 4.9966939 5 5h2v3h-11c-1.1045695 0-2 .8954305-2 2v3c0 1.1045695.8954305 2 2 2zm16-16h2v1c0 1.6568542-1.3431458 3-3 3h-2v-1c0-1.6568542 1.3431458-3 3-3zm0-11h2v1c0 1.6568542-1.3431458 3-3 3h-2v-1c0-1.6568542 1.3431458-3 3-3zm0-11h2v1c0 1.65685425-1.3431458 3-3 3h-2v-1c0-1.65685425 1.3431458-3 3-3zm-10 1v-1h2c1.6568542 0 3 1.34314575 3 3v1h-2c-1.65685425 0-3-1.34314575-3-3zm0 11v-1h2c1.6568542 0 3 1.3431458 3 3v1h-2c-1.65685425 0-3-1.3431458-3-3zm0 11v-1h2c1.6568542 0 3 1.3431458 3 3v1h-2c-1.65685425 0-3-1.3431458-3-3zm12.34 27.191c-.0937909.4677615-.5029409.805519-.98.809h-11.72c-.47613867-.0031872-.88496994-.3394301-.98-.806l-2.44-12.194h2.28l1.84 9.2c.09497846.4652983.50410708.799622.979.8.06718145.0003207.13421238-.0063824.2-.02.26012304-.0527667.4885976-.2067816.63509-.4281146.1464925-.221333.1989838-.4918248.14591-.7518854l-1.76-8.8h13.616c-.226055.8270168-.1822636 1.7045959.125 2.505zm29.66-3.191h-18v-12c0-.5522847.4477153-1 1-1h16c.5522847 0 1 .4477153 1 1zm-19 4v-2h20v2zm16.573-26.283c.1-.288.19-.569.259-.835 1.2528577-.3614607 2.1287528-1.4908277 2.1670947-2.7942218.0383418-1.3033941-.7696512-2.4822959-1.9990947-2.9167782v-1.186c1.7020587.4884582 3.3093489 1.2609989 4.754 2.285l-2.991 6.1zm-11.587-1.882c-.0806021-.4818022-.4975022-.8348566-.986-.835-.5522847 0-1-.4477153-1-1s.4477153-1 1-1 1-.4477153 1-1v-2.516c3.3020981-.6453446 6.6979019-.6453446 10 0v2.516c0 .5522847.4477153 1 1 1s1 .4477153 1 1-.4477153 1-1 1c-.4878584-.000021-.9045277.3519927-.986.833-.036.211-.933 5.167-5.014 5.167-1.7036745-.0061118-3.2578174-.9738222-4.015-2.5-.4710478-.8302831-.8081903-1.7296671-.999-2.665zm5.014-16.835c5.119 0 10.787 4.541 11.83 10.907-3.6037573-2.0314317-7.6951567-3.0368162-11.83-2.907-4.1348433-.1298162-8.2262427.8755683-11.83 2.907 1.043-6.366 6.711-10.907 11.83-10.907zm-11.754 13.27c1.4444066-1.0244162 3.0517699-1.796992 4.754-2.285v1.186c-1.2321246.4347771-2.0411574 1.6170097-2.0002538 2.9229534.0409035 1.3059437.9223356 2.4352291 2.1792538 2.7920466.063.232.155.52.263.827l-2.2.652zm-1.433 10.235c.1937751-.4636339.5556148-.836904 1.013-1.045l6.46-1.911c1.1151956 2.1229574 3.3159574 3.452119 5.714 3.451 2.3917998-.018443 4.5822446-1.3426839 5.71-3.452l6.464 1.912c.4563891.2073422.8182766.5785088 1.014 1.04l3.659 8.787c.3419418.8260625.0974715 1.7786817-.6 2.338l-5.247 4.204v-9.829c0-1.6568542-1.3431458-3-3-3h-16c-1.6568542 0-3 1.3431458-3 3v9.829l-5.25-4.2c-.6947126-.5584606-.9389159-1.5075973-.6-2.332zm-25.813 3.495h22.191l-1.249 3h-20.942z"/></g></g></svg>